<?xml version="1.0" encoding="UTF-8"?>
<svg width="335px" height="765px" viewBox="0 0 335 765" version="1.1" xmlns="http://www.w3.org/2000/svg" xmlns:xlink="http://www.w3.org/1999/xlink">
    <title>wolfpack-digital-poly-half</title>
    <g id="Page-1" stroke="none" stroke-width="1" fill="none" fill-rule="evenodd">
        <g id="Home" transform="translate(-1105.000000, -5517.000000)" fill="#000000">
            <g id="wolf" transform="translate(1105.000000, 5517.000000)">
                <polygon id="Path" transform="translate(12.866922, 561.534439) scale(-1, 1) translate(-12.866922, -561.534439) " points="9.63914629 571.696538 24.8710245 550.782215 25.2920387 551.088976 9.85225225 572.286663 0.441805033 569.933964 0.566549984 569.429628"></polygon>
                <path d="M0,545.213727 L39.0659604,550.766617 L13.7557297,570.071746 L0,545.213727 Z M0.958976808,545.874043 L13.9194574,569.294446 L37.7639349,551.107173 L0.958976808,545.874043 Z" id="Shape" transform="translate(19.532980, 557.642737) scale(-1, 1) translate(-19.532980, -557.642737) "></path>
                <polygon id="Path" transform="translate(50.403457, 201.417345) scale(-1, 1) translate(-50.403457, -201.417345) " points="56.1248324 185.094814 70.9149056 217.524104 70.4419143 217.739876 55.8441562 185.735632 30.0583354 194.310895 29.8920088 193.817478"></polygon>
                <path d="M28.5068201,193.060195 L72.0480055,218.270468 L44.9965432,212.066102 L28.5068201,193.060195 Z M30.9367478,195.067918 L45.2772194,211.597382 L68.8046368,216.992992 L30.9367478,195.067918 Z" id="Shape" transform="translate(50.277413, 205.665332) scale(-1, 1) translate(-50.277413, -205.665332) "></path>
                <polygon id="Path" transform="translate(53.325868, 500.995986) scale(-1, 1) translate(-53.325868, -500.995986) " points="68.3524364 492.934418 37.7795281 483.840782 37.9276627 483.341646 68.872207 492.547068 68.872207 518.650327 68.3524364 518.650327"></polygon>
                <path d="M37.4650668,481.891031 L69.9429345,518.910294 L56.0884484,518.910294 L37.4650668,481.891031 Z M39.7572553,485.291396 L56.4081074,518.39036 L68.7968403,518.39036 L39.7572553,485.291396 Z" id="Shape" transform="translate(53.704001, 500.400662) scale(-1, 1) translate(-53.704001, -500.400662) "></path>
                <polygon id="Path" transform="translate(43.734800, 88.229781) scale(-1, 1) translate(-43.734800, -88.229781) " points="46.4960815 98.3405366 40.4069686 71.3286935 40.9137449 71.2143081 47.0626315 98.4918373 40.8513725 105.245253 40.4693411 104.893258"></polygon>
                <g id="Group" transform="translate(40.000000, 668.000000)">
                    <polygon id="Path" transform="translate(33.104191, 15.770882) scale(-1, 1) translate(-33.104191, -15.770882) " points="26.6252504 30.9646373 64.908956 0.0571926807 65.2364115 0.46274078 26.8071701 31.4845707 0.971971074 31.4845707 0.971971074 30.9646373"></polygon>
                    <path d="M6.59848812,0 L65.5976521,0 L0,31.6873448 L6.59848812,0 Z M7.02210118,0.519933461 L0.725080025,30.7592635 L63.3262544,0.519933461 L7.02210118,0.519933461 Z" id="Shape" transform="translate(32.798826, 15.843672) scale(-1, 1) translate(-32.798826, -15.843672) "></path>
                </g>
                <path d="M83.1866901,70.9803381 L83.1866901,105.623765 L46.5506574,75.1444852 L83.1866901,70.9803381 Z M47.8188977,75.5235167 L82.6669195,104.515006 L82.6669195,71.5626636 L47.8188977,75.5235167 Z" id="Shape" transform="translate(64.868674, 88.302051) scale(-1, 1) translate(-64.868674, -88.302051) "></path>
                <polygon id="Path" transform="translate(87.642424, 156.846179) scale(-1, 1) translate(-87.642424, -156.846179) " points="95.6741794 154.2612 72.8640454 133.722009 73.2096929 133.335698 96.141973 153.983036 102.420802 180.235776 101.916625 180.35666"></polygon>
                <path d="M72.2974954,132.413856 L102.636507,181.118363 L75.9228956,164.310214 L72.2974954,132.413856 Z M73.0745525,134.643851 L76.41148,164.003193 L100.999229,179.474333 L73.0745525,134.643851 Z" id="Shape" transform="translate(87.467001, 156.766110) scale(-1, 1) translate(-87.467001, -156.766110) "></path>
                <polygon id="Path" transform="translate(92.086203, 346.031118) scale(-1, 1) translate(-92.086203, -346.031118) " points="107.758327 355.965747 96.710602 335.633749 97.1680002 335.384181 108.735496 356.678056 75.43691 350.449253 75.5322879 349.937118"></polygon>
                <polygon id="Path" transform="translate(91.071611, 34.923708) scale(-1, 1) translate(-91.071611, -34.923708) " points="102.769048 30.0259593 93.4833462 2.34213074 93.9745295 2.17671391 103.343395 30.0969302 79.2364333 67.6707016 78.799826 67.3896776"></polygon>
                <polygon id="Path" transform="translate(94.187765, 362.639093) scale(-1, 1) translate(-94.187765, -362.639093) " points="108.286674 364.825413 79.5711656 350.425856 79.8042827 349.960515 109.617286 364.911202 79.9755471 375.31767 78.7582443 375.177288 78.8174982 374.659954 79.9162933 374.787338"></polygon>
                <path d="M122.197295,299.695948 L127.077941,326.87547 L84.0962887,316.71337 L122.197295,299.695948 Z M85.7119957,316.562589 L126.425629,326.186558 L121.804868,300.439453 L85.7119957,316.562589 Z" id="Shape" transform="translate(105.587115, 313.285709) scale(-1, 1) translate(-105.587115, -313.285709) "></path>
                <polygon id="Path" transform="translate(113.163421, 391.078153) scale(-1, 1) translate(-113.163421, -391.078153) " points="84.4328402 389.743224 141.913494 391.895749 141.892703 392.413082 84.4133488 390.260558"></polygon>
                <polygon id="Path" transform="translate(110.119775, 375.130494) scale(-1, 1) translate(-110.119775, -375.130494) " points="110.485043 375.684223 109.467852 375.010909 109.754506 374.576765 110.771697 375.250079"></polygon>
                <polygon id="Path" transform="translate(122.110753, 381.348898) scale(-1, 1) translate(-122.110753, -381.348898) " points="84.4941731 370.292513 159.87053 391.903548 159.727593 392.405283 84.3509763 370.794249"></polygon>
                <polygon id="Path" transform="translate(106.549470, 333.405834) scale(-1, 1) translate(-106.549470, -333.405834) " points="125.348664 335.54796 86.7159326 316.87195 86.9420329 316.40401 126.383008 335.46997 104.557839 350.407658 104.264429 349.978713"></polygon>
                <polygon id="Path" transform="translate(122.240436, 422.236466) scale(-1, 1) translate(-122.240436, -422.236466) " points="156.478507 443.400357 87.6452825 400.058704 87.3682448 400.498048 157.112627 444.414227 153.611972 412.607298 137.735318 409.581285 137.638121 410.09082 153.13898 413.044042"></polygon>
                <polygon id="Path" transform="translate(114.428153, 399.905323) scale(-1, 1) translate(-114.428153, -399.905323) " points="140.391346 399.523172 86.9082478 390.257958 86.9968687 389.745824 141.948059 399.265805 122.18664 410.064823 121.93741 409.607282"></polygon>
                <path d="M103.382378,0 L88.1504996,67.5875123 L87.6385255,67.5105621 L90.7233642,26.910258 L103.382378,0 Z M91.2353383,27.0451807 L88.425978,64.0012712 L101.830862,4.51888157 L91.2353383,27.0451807 Z" id="Shape" transform="translate(95.510452, 33.793756) scale(-1, 1) translate(-95.510452, -33.793756) "></path>
                <polygon id="Path" transform="translate(95.315538, 290.256556) scale(-1, 1) translate(-95.315538, -290.256556) " points="88.9535452 299.929918 101.238324 280.307629 101.67753 280.583194 89.3927514 300.205483"></polygon>
                <polygon id="Path" transform="translate(107.106924, 275.451451) scale(-1, 1) translate(-107.106924, -275.451451) " points="123.807544 280.154249 103.46762 270.639466 103.687743 270.166327 126.276455 280.736574 87.9373936 279.790295 87.9503879 279.270362"></polygon>
                <polygon id="Path" transform="translate(107.118229, 477.709466) scale(-1, 1) translate(-107.118229, -477.709466) " points="122.377395 490.779294 93.2925904 464.356275 93.6421361 463.971525 123.88473 491.447408 90.3517282 488.210822 90.4016262 487.690889"></polygon>
                <path d="M92.7244811,513.370403 L131.789402,518.925892 L106.479951,538.223222 L92.7244811,513.370403 Z M93.6850172,514.033318 L106.643159,537.443322 L130.487377,519.263848 L93.6850172,514.033318 Z" id="Shape" transform="translate(112.256942, 525.796812) scale(-1, 1) translate(-112.256942, -525.796812) "></path>
                <polygon id="Path" transform="translate(102.350503, 245.160387) scale(-1, 1) translate(-102.350503, -245.160387) " points="109.460835 261.376852 94.7671797 229.159695 95.2401709 228.943922 109.933827 261.161079"></polygon>
                <polygon id="Path" transform="translate(110.636037, 270.398997) scale(-1, 1) translate(-110.636037, -270.398997) " points="110.504795 270.179325 126.138456 261.044094 126.40094 261.493837 95.1330982 279.7539 94.8711338 279.304158"></polygon>
                <polygon id="Path" transform="translate(116.837810, 250.996510) scale(-1, 1) translate(-116.837810, -250.996510) " points="137.803928 261.064892 97.8387642 237.933572 98.0991693 237.48357 139.54256 261.47044 94.1678841 264.509451 94.1330595 263.992117"></polygon>
                <polygon id="Path" transform="translate(111.798504, 201.519902) scale(-1, 1) translate(-111.798504, -201.519902) " points="126.145213 225.041042 97.0125888 178.273547 97.453874 177.998762 126.584419 224.765997"></polygon>
                <polygon id="Path" transform="translate(116.208368, 223.249611) scale(-1, 1) translate(-116.208368, -223.249611) " points="134.58031 224.830469 109.40418 208.983677 109.680958 208.543813 135.788777 224.97631 96.792206 237.955409 96.6279585 237.461992 122.637281 228.8051"></polygon>
                <polygon id="Path" transform="translate(126.847293, 500.674927) scale(-1, 1) translate(-126.847293, -500.674927) " points="154.449582 512.850469 129.651066 488.135432 130.018024 487.766279 155.923132 513.583575 97.7714539 505.319233 97.8444817 504.804499"></polygon>
                <path d="M100.708158,291.104047 L185.651153,299.883124 L160.115342,316.752365 L100.708158,291.104047 Z M104.024554,291.969737 L160.063365,316.162241 L184.151615,300.252277 L104.024554,291.969737 Z" id="Shape" transform="translate(143.179655, 303.928206) scale(-1, 1) translate(-143.179655, -303.928206) "></path>
                <polygon id="Path" transform="translate(142.323983, 289.871805) scale(-1, 1) translate(-142.323983, -289.871805) " points="182.359705 299.719345 158.212202 279.730503 158.543555 279.327555 184.020373 300.416056 100.627593 291.597984 100.682429 291.08065"></polygon>
                <polygon id="Path" transform="translate(103.062719, 453.218001) scale(-1, 1) translate(-103.062719, -453.218001) " points="102.802834 466.168243 102.802834 440.267758 103.322604 440.267758 103.322604 466.168243"></polygon>
                <polygon id="Path" transform="translate(118.126191, 448.825863) scale(-1, 1) translate(-118.126191, -448.825863) " points="132.365828 465.622313 102.236284 431.280708 102.626891 430.937552 134.016099 466.714174 116.54427 460.942912 116.707218 460.448975"></polygon>
                <polygon id="Path" transform="translate(129.425355, 420.503787) scale(-1, 1) translate(-129.425355, -420.503787) " points="154.449582 439.597044 101.721711 400.487649 102.031234 400.069103 157.129 440.938472 124.955718 431.358698 125.104112 430.859562"></polygon>
                <polygon id="Path" transform="translate(131.156321, 400.080801) scale(-1, 1) translate(-131.156321, -400.080801) " points="154.014534 409.284923 120.28116 390.229362 120.536628 389.77442 157.022707 410.387182 105.289936 400.534443 105.387133 400.022308"></polygon>
                <path d="M85.7585152,374.787338 L106.745294,377.233625 L110.188774,392.727642 L85.0960675,376.105369 L84.0287185,375.39306 L85.7585152,374.787338 Z M85.8172492,375.31767 L85.1839087,375.538642 L85.3842803,375.673825 L109.401322,391.581189 L106.316483,377.706764 L85.8172492,375.31767 Z" id="Shape" transform="translate(97.108746, 383.757490) scale(-1, 1) translate(-97.108746, -383.757490) "></path>
                <polygon id="Path" transform="translate(155.379842, 326.693493) scale(-1, 1) translate(-155.379842, -326.693493) " points="184.846028 341.974337 108.34099 302.638771 108.103454 303.101512 184.618629 342.442277 202.656229 350.748214 184.719984 316.518395 184.259467 316.757564 201.487524 349.638156"></polygon>
                <polygon id="Path" transform="translate(117.399812, 358.568014) scale(-1, 1) translate(-117.399812, -358.568014) " points="125.845825 350.355665 108.421814 342.398083 108.637519 341.924944 126.37781 350.028107 125.461454 375.211084 124.85956 375.138293 124.922452 374.620959 124.962475 374.626159"></polygon>
                <polygon id="Path" transform="translate(123.226311, 358.620007) scale(-1, 1) translate(-123.226311, -358.620007) " points="136.095702 374.563767 119.950326 342.278498 120.415001 342.044528 136.992566 375.195486 135.732122 375.044705 109.460056 357.650331 109.746969 357.216187 135.916381 374.542969"></polygon>
                <polygon id="Path" transform="translate(136.512298, 521.602249) scale(-1, 1) translate(-136.512298, -521.602249) " points="154.088082 537.326337 116.968142 505.256841 117.307813 504.864291 156.056453 538.340207 137.428653 533.811587 137.551319 533.307251"></polygon>
                <polygon id="Path" transform="translate(126.600402, 471.869314) scale(-1, 1) translate(-126.600402, -471.869314) " points="133.246059 460.862322 119.298534 456.247913 119.461742 455.753976 133.90227 460.532165 132.686266 464.221093 129.598569 487.984651 129.083216 487.91706 132.177151 464.106707"></polygon>
                <polygon id="Path" transform="translate(124.618906, 193.450145) scale(-1, 1) translate(-124.618906, -193.450145) " points="126.10571 208.793381 122.61571 178.165661 123.132102 178.106908 126.622102 208.734629"></polygon>
                <polygon id="Path" transform="translate(142.295396, 223.123007) scale(-1, 1) translate(-142.295396, -223.123007) " points="162.147905 208.432028 149.121673 237.813987 148.646603 237.603154 161.285345 209.095463 122.524231 215.243156 122.442887 214.729722"></polygon>
                <polygon id="Path" transform="translate(128.840353, 471.975900) scale(-1, 1) translate(-128.840353, -471.975900) " points="133.572735 488.028846 123.611851 456.078935 124.107972 455.922955 134.068856 487.872866"></polygon>
                <polygon id="Path" transform="translate(139.873394, 477.059550) scale(-1, 1) translate(-139.873394, -477.059550) " points="155.740692 488.166628 123.713986 466.384016 124.006357 465.952471 156.032803 487.735083"></polygon>
                <polygon id="Path" transform="translate(139.528917, 264.250524) scale(-1, 1) translate(-139.528917, -264.250524) " points="139.336471 264.421062 126.073744 249.142558 126.466171 248.801741 139.729158 264.080506 139.729158 264.080506 152.984089 279.358751 152.591662 279.699307"></polygon>
                <polygon id="Path" transform="translate(131.559533, 349.796736) scale(-1, 1) translate(-131.559533, -349.796736) " points="126.056332 357.283778 136.635483 342.013332 137.062735 342.309694 126.483583 357.58014"></polygon>
                <polygon id="Path" transform="translate(154.456859, 280.440212) scale(-1, 1) translate(-154.456859, -280.440212) " points="181.242459 279.551126 124.876453 269.797174 124.965073 269.28504 184.045062 279.506932 124.97287 291.595385 124.868656 291.08585"></polygon>
                <polygon id="Path" transform="translate(163.331293, 304.431242) scale(-1, 1) translate(-163.331293, -304.431242) " points="198.201535 315.977664 142.567106 292.039928 142.772415 291.564189 202.583721 317.298295 124.078865 303.124909 124.171124 302.612775"></polygon>
                <polygon id="Path" transform="translate(142.866104, 345.051044) scale(-1, 1) translate(-142.866104, -345.051044) " points="126.225257 347.683207 159.41781 341.906746 159.50695 342.41888 126.314398 348.195341"></polygon>
                <polygon id="Path" transform="translate(157.658906, 338.836539) scale(-1, 1) translate(-157.658906, -338.836539) " points="126.297505 335.251598 189.075142 341.904146 189.020566 342.42148 126.24267 335.766332"></polygon>
                <polygon id="Path" transform="translate(164.403709, 322.522327) scale(-1, 1) translate(-164.403709, -322.522327) " points="198.926095 340.593914 126.15093 303.101512 126.388985 302.638771 202.656489 341.930143 202.44988 342.405882 129.093092 316.162241 129.268254 315.673503"></polygon>
                <polygon id="Path" transform="translate(126.363776, 161.237147) scale(-1, 1) translate(-126.363776, -161.237147) " points="126.103891 178.136025 126.103891 144.33827 126.623662 144.33827 126.623662 178.136025"></polygon>
                <polygon id="Path" transform="translate(144.087695, 128.045505) scale(-1, 1) translate(-144.087695, -128.045505) " points="161.486237 144.113659 152.216907 107.559737 152.720565 107.432093 162.13647 144.563141 126.097394 148.658917 126.03892 148.142363"></polygon>
                <polygon id="Path" transform="translate(144.137853, 181.684051) scale(-1, 1) translate(-144.137853, -181.684051) " points="161.529898 178.156302 126.002276 148.600425 126.334669 148.200596 162.293701 178.115487 126.35494 215.167506 125.982005 214.805372"></polygon>
                <polygon id="Path" transform="translate(171.663995, 536.179884) scale(-1, 1) translate(-171.663995, -536.179884) " points="207.59301 533.777791 126.753864 514.09571 126.87679 513.591374 207.994013 533.341047 216.574127 558.768393 180.416543 540.781295 180.647841 540.315954 215.679342 557.741524"></polygon>
                <polygon id="Path" transform="translate(148.210515, 558.724198) scale(-1, 1) translate(-148.210515, -558.724198) " points="162.593088 577.062252 133.422521 540.713703 133.827942 540.386145 162.998509 576.737293"></polygon>
                <polygon id="Path" transform="translate(171.302625, 575.093004) scale(-1, 1) translate(-171.302625, -575.093004) " points="207.576897 576.836081 146.995811 562.600302 147.114579 562.095967 210.383139 576.960865 132.295399 588.09004 132.222111 587.575306"></polygon>
                <polygon id="Path" transform="translate(133.820666, 443.555037) scale(-1, 1) translate(-133.820666, -443.555037) " points="133.56078 456.000945 133.56078 431.10913 134.080551 431.10913 134.080551 456.000945"></polygon>
                <polygon id="Path" transform="translate(145.397517, 415.694403) scale(-1, 1) translate(-145.397517, -415.694403) " points="156.76646 431.26511 133.613017 400.435656 134.028574 400.123696 157.182016 430.95315"></polygon>
                <polygon id="Path" transform="translate(156.294248, 432.771617) scale(-1, 1) translate(-156.294248, -432.771617) " points="177.357953 431.124728 145.81957 425.527644 145.91027 425.01551 180.177708 431.096132 132.486414 440.527725 132.453149 440.527725 132.453149 440.228763 132.410788 440.012991"></polygon>
                <path d="M133.120275,439.688032 L181.026494,455.964549 L158.198688,466.482803 L133.120275,439.688032 Z M134.917901,440.847484 L158.321613,465.853684 L179.625452,456.03734 L134.917901,440.847484 Z" id="Shape" transform="translate(157.073384, 453.085418) scale(-1, 1) translate(-157.073384, -453.085418) "></path>
                <polygon id="Path" transform="translate(152.236009, 56.544451) scale(-1, 1) translate(-152.236009, -56.544451) " points="135.447548 5.57049899 164.42606 55.0745336 169.02447 107.472908 168.506519 107.518402 163.918503 55.2364929 137.420077 9.96903208 158.159705 73.9387595 157.665403 74.0991589"></polygon>
                <polygon id="Path" transform="translate(148.873483, 111.240346) scale(-1, 1) translate(-148.873483, -111.240346) " points="161.754958 107.45861 150.940091 74.0994189 151.434653 73.9390194 162.325666 107.53322 135.857907 148.541672 135.421299 148.259868"></polygon>
                <polygon id="Path" transform="translate(159.849869, 253.624904) scale(-1, 1) translate(-159.849869, -253.624904) " points="166.768666 248.754947 183.850148 237.491629 184.136022 237.925773 167.054799 249.189092 167.054799 249.189092 135.84985 269.758179 135.563716 269.324035"></polygon>
                <polygon id="Path" transform="translate(170.284004, 226.409377) scale(-1, 1) translate(-170.284004, -226.409377) " points="204.090016 237.387382 178.291461 215.183364 178.630351 214.789254 205.632955 238.0295 134.935054 232.504167 134.975596 231.986053"></polygon>
                <polygon id="Path" transform="translate(148.324085, 363.988320) scale(-1, 1) translate(-148.324085, -363.988320) " points="136.720206 370.31851 159.670158 357.208388 159.927965 357.65813 136.978012 370.768252"></polygon>
                <polygon id="Path" transform="translate(162.301887, 346.502958) scale(-1, 1) translate(-162.301887, -346.502958) " points="165.040688 348.177143 135.455604 335.748134 135.656755 335.269795 165.242099 347.698805 189.14817 357.73612 151.721826 356.581868 151.737939 356.061934 186.36142 357.130398"></polygon>
                <polygon id="Path" transform="translate(157.389015, 373.161246) scale(-1, 1) translate(-157.389015, -373.161246) " points="154.787693 370.718859 141.712603 356.498678 142.095154 356.145124 155.170244 370.367904 155.170244 370.367904 173.065427 389.826413 172.682876 390.177368"></polygon>
                <polygon id="Path" transform="translate(167.935681, 389.801716) scale(-1, 1) translate(-167.935681, -389.801716) " points="193.311532 390.135774 141.247928 379.620119 141.350843 379.110585 194.623434 389.868008 179.043569 400.492848 178.750678 400.063903"></polygon>
                <polygon id="Path" transform="translate(151.223106, 60.118018) scale(-1, 1) translate(-151.223106, -60.118018) " points="155.640377 74.1017586 146.313093 46.2996166 146.805835 46.1342778 156.133119 73.9364198"></polygon>
                <polygon id="Path" transform="translate(158.415952, 110.572621) scale(-1, 1) translate(-158.415952, -110.572621) " points="170.8156 72.6911791 154.979228 148.454063 154.470373 148.347477 169.729279 75.3469992 146.453691 111.628216 146.016304 111.347452"></polygon>
                <polygon id="Path" transform="translate(184.694385, 605.210149) scale(-1, 1) translate(-184.694385, -605.210149) " points="169.702251 622.23667 216.540342 587.6247 216.849085 588.043246 169.822058 622.795599 152.539685 619.052078 152.649616 618.542543"></polygon>
                <path d="M158.156586,587.572706 L217.15627,587.572706 L151.558358,619.262651 L158.156586,587.572706 Z M158.57942,588.09264 L152.282398,618.33457 L214.884872,588.09264 L158.57942,588.09264 Z" id="Shape" transform="translate(184.357314, 603.417679) scale(-1, 1) translate(-184.357314, -603.417679) "></path>
                <polygon id="Path" transform="translate(161.962477, 26.993343) scale(-1, 1) translate(-161.962477, -26.993343) " points="167.790535 46.2951972 155.638817 7.84822349 156.134419 7.69148955 168.286136 46.1384373"></polygon>
                <polygon id="Path" transform="translate(186.226929, 107.707138) scale(-1, 1) translate(-186.226929, -107.707138) " points="184.249851 93.1950151 188.7178 122.139971 188.204006 122.219261 183.736058 93.274305"></polygon>
                <polygon id="Path" transform="translate(163.241762, 78.852391) scale(-1, 1) translate(-163.241762, -78.852391) " points="155.6331 111.430641 170.343388 46.1597545 170.850424 46.2741399 156.140136 111.545027"></polygon>
                <polygon id="Path" transform="translate(172.032383, 69.669976) scale(-1, 1) translate(-172.032383, -69.669976) " points="187.681897 46.4769139 155.603993 46.4769139 155.603993 45.9569805 188.674399 45.9569805 155.817618 93.3829711 155.390367 93.086609"></polygon>
                <polygon id="Path" transform="translate(177.685278, 452.166435) scale(-1, 1) translate(-177.685278, -452.166435) " points="175.045493 440.444535 155.554095 419.610802 155.933527 419.254647 175.424926 440.090981 199.816462 466.142247 186.802965 485.078223 186.374674 484.781861 199.151415 466.19424"></polygon>
                <polygon id="Path" transform="translate(186.199641, 509.452704) scale(-1, 1) translate(-186.199641, -509.452704) " points="155.849324 513.586175 216.47537 504.804499 216.549957 505.319233 155.923911 514.100909"></polygon>
                <polygon id="Path" transform="translate(178.202190, 412.873764) scale(-1, 1) translate(-178.202190, -412.873764) " points="189.515907 424.976515 199.188059 400.183488 199.672226 400.373264 189.845182 425.56404 156.732155 419.688792 156.823115 419.176657"></polygon>
                <polygon id="Path" transform="translate(178.063931, 399.402288) scale(-1, 1) translate(-178.063931, -399.402288) " points="198.57447 400.253679 161.429582 379.591523 161.68219 379.136581 199.733039 400.303073 156.60767 419.667994 156.394824 419.194855"></polygon>
                <polygon id="Path" transform="translate(162.107363, 181.693409) scale(-1, 1) translate(-162.107363, -181.693409) " points="161.847477 214.986309 161.847477 148.40051 162.367248 148.40051 162.367248 214.986309"></polygon>
                <polygon id="Path" transform="translate(170.816379, 130.748899) scale(-1, 1) translate(-170.816379, -130.748899) " points="171.033124 110.316424 179.778784 148.342278 179.272268 148.458743 171.038322 112.658464 162.361271 151.181374 161.853975 151.067249"></polygon>
                <polygon id="Path" transform="translate(172.935095, 169.855564) scale(-1, 1) translate(-172.935095, -169.855564) " points="184.224642 148.065153 162.108922 191.645976 161.645547 191.410706 183.30127 148.735867 166.385335 151.381289 166.30503 150.867594"></polygon>
                <polygon id="Path" transform="translate(183.859893, 223.615644) scale(-1, 1) translate(-183.859893, -223.615644) " points="162.011465 232.003471 205.516786 214.74454 205.708322 215.227818 162.203001 232.486749"></polygon>
                <polygon id="Path" transform="translate(204.690481, 204.522908) scale(-1, 1) translate(-204.690481, -204.522908) " points="194.20008 196.811775 209.826465 194.313234 209.744341 193.7998 194.040511 196.310559 162.097487 212.053104 247.263984 215.246015 247.283475 214.726602 164.171372 211.610641"></polygon>
                <polygon id="Path" transform="translate(179.172992, 551.449029) scale(-1, 1) translate(-179.172992, -551.449029) " points="162.651822 562.132362 195.406208 540.334152 195.694161 540.765697 162.939775 562.563907"></polygon>
                <polygon id="Path" transform="translate(189.341394, 533.029087) scale(-1, 1) translate(-189.341394, -533.029087) " points="215.145797 540.471934 162.054606 514.074912 162.285904 513.609572 216.628183 540.627914 170.552336 552.448602 170.423433 551.944266"></polygon>
                <polygon id="Path" transform="translate(194.130951, 31.415806) scale(-1, 1) translate(-194.130951, -31.415806) " points="207.089352 7.5098508 220.655886 7.5098508 200.030607 46.3388716 199.57165 46.0947628 219.791247 8.02978426 207.332865 8.02978426 168.00572 55.321762 167.606016 54.9892646"></polygon>
                <polygon id="Path" transform="translate(188.174120, 452.675970) scale(-1, 1) translate(-188.174120, -452.675970) " points="206.761897 483.830383 176.486557 419.54321 176.95669 419.322239 208.371367 486.029702 167.976873 448.646486 168.330057 448.264335"></polygon>
                <path d="M122.936928,484.631081 L123.584303,484.670076 L169.411699,487.753281 L136.373779,505.402422 L122.936928,484.631081 Z M123.933069,485.216006 L167.565474,488.14843 L136.550501,504.71871 L123.933069,485.216006 Z" id="Shape" transform="translate(146.174314, 495.016751) scale(-1, 1) translate(-146.174314, -495.016751) "></path>
                <polygon id="Path" transform="translate(192.566571, 481.164424) scale(-1, 1) translate(-192.566571, -481.164424) " points="215.789533 484.878049 176.761516 448.646486 177.11496 448.264335 216.647414 484.966438 168.755489 514.064514 168.485728 513.62257"></polygon>
                <polygon id="Path" transform="translate(183.646787, 357.446257) scale(-1, 1) translate(-183.646787, -357.446257) " points="194.077674 356.306303 178.040671 335.667544 178.45103 335.350385 194.761173 356.337499 172.910795 379.542129 172.532402 379.185975"></polygon>
                <polygon id="Path" transform="translate(181.758981, 136.651834) scale(-1, 1) translate(-181.758981, -136.651834) " points="183.736058 151.163956 179.26811 122.219261 179.781903 122.139711 184.249851 151.084667"></polygon>
                <polygon id="Path" transform="translate(194.870195, 171.033214) scale(-1, 1) translate(-194.870195, -171.033214) " points="210.544788 150.50962 206.005631 191.556807 205.488979 191.499614 209.885978 151.739263 179.529295 177.15335 179.195602 176.754821"></polygon>
                <polygon id="Path" transform="translate(183.993085, 280.672882) scale(-1, 1) translate(-183.993085, -280.672882) " points="183.733199 269.542407 184.25297 269.542407 184.25297 291.803358 183.733199 291.803358"></polygon>
                <polygon id="Path" transform="translate(199.390510, 251.034075) scale(-1, 1) translate(-199.390510, -251.034075) " points="214.249193 269.12906 192.943535 232.375743 193.393136 232.114997 215.326937 269.953154 183.454083 261.519834 183.586884 261.018098"></polygon>
                <polygon id="Path" transform="translate(197.145361, 149.527466) scale(-1, 1) translate(-197.145361, -149.527466) " points="210.287241 122.174546 210.06374 122.06692 183.678623 176.84139 184.146937 177.067041 210.612098 122.126193 210.473579 121.98789"></polygon>
                <polygon id="Path" transform="translate(207.443706, 195.301108) scale(-1, 1) translate(-207.443706, -195.301108) " points="199.585424 196.30458 215.219345 193.784202 215.301988 194.297636 199.668067 196.818014"></polygon>
                <polygon id="Path" transform="translate(213.802970, 184.444897) scale(-1, 1) translate(-213.802970, -184.444897) " points="241.925679 190.893372 217.102474 177.181687 217.353523 176.726485 245.30029 192.16331 182.305649 178.390012 182.41662 177.882037"></polygon>
                <polygon id="Path" transform="translate(193.265273, 297.336750) scale(-1, 1) translate(-193.265273, -297.336750) " points="183.859764 302.64657 202.4044 291.579787 202.670782 292.02433 184.126146 303.093713"></polygon>
                <polygon id="Path" transform="translate(205.671288, 289.102304) scale(-1, 1) translate(-205.671288, -289.102304) " points="184.025051 286.143882 227.381717 291.543391 227.317526 292.060725 183.960859 286.658616"></polygon>
                <polygon id="Path" transform="translate(201.937776, 276.905964) scale(-1, 1) translate(-201.937776, -276.905964) " points="218.562249 290.875277 188.433485 261.454842 188.796545 261.083089 221.202944 292.72884 182.672607 274.12822 182.898448 273.66028"></polygon>
                <polygon id="Path" transform="translate(199.533447, 108.017018) scale(-1, 1) translate(-199.533447, -108.017018) " points="214.700354 121.504352 210.349094 93.274305 210.862887 93.1950151 215.431931 122.839021 183.634963 94.9014367 183.977751 94.5107067"></polygon>
                <path d="M187.19851,634.826859 L238.091591,639.862415 L191.563804,681.607872 L187.19851,634.826859 Z M187.774676,635.406585 L191.985338,680.53161 L236.865972,640.265363 L187.774676,635.406585 Z" id="Shape" transform="translate(212.645051, 658.217366) scale(-1, 1) translate(-212.645051, -658.217366) "></path>
                <polygon id="Path" transform="translate(210.341167, 70.675137) scale(-1, 1) translate(-210.341167, -70.675137) " points="232.481447 45.5321948 232.481447 93.4809785 205.435962 94.9659085 205.407635 94.4467549 231.961676 92.9888615 231.961676 46.9019595 188.589676 95.8180794 188.200888 95.4731036"></polygon>
                <polygon id="Path" transform="translate(210.085180, 70.773665) scale(-1, 1) translate(-210.085180, -70.773665) " points="232.489503 45.7292496 188.069906 95.8180794 187.680857 95.4731036 230.929412 46.7049048 199.784236 55.4059912 199.644418 54.9052953"></polygon>
                <polygon id="Path" transform="translate(194.337170, 325.713418) scale(-1, 1) translate(-194.337170, -325.713418) " points="199.398047 335.633749 188.818895 316.040056 189.276293 315.793088 199.855445 335.38678"></polygon>
                <polygon id="Path" transform="translate(194.337170, 377.470195) scale(-1, 1) translate(-194.337170, -377.470195) " points="199.368679 335.475169 199.884552 335.540161 194.36017 379.396548 189.3054 419.46522 188.789788 419.400229 193.844557 379.331556"></polygon>
                <polygon id="Path" transform="translate(208.015844, 349.912421) scale(-1, 1) translate(-208.015844, -349.912421) " points="227.491909 334.866847 216.649494 364.957996 216.160649 364.781219 226.476017 336.151083 188.824353 360.78813 188.539778 360.353985"></polygon>
                <path d="M177.352495,191.249786 L200.464876,216.022276 L161.594609,194.316614 L161.59305,194.316614 L160.785066,193.912366 L177.352495,191.249786 Z M162.411948,194.177532 L197.820803,213.950341 L177.161479,191.806895 L162.411948,194.177532 Z" id="Shape" transform="translate(180.624971, 203.636031) scale(-1, 1) translate(-180.624971, -203.636031) "></path>
                <polygon id="Path" transform="translate(199.626746, 392.150516) scale(-1, 1) translate(-199.626746, -392.150516) " points="199.36686 419.431425 199.36686 364.869607 199.886631 364.869607 199.886631 419.431425"></polygon>
                <polygon id="Path" transform="translate(201.082103, 309.394007) scale(-1, 1) translate(-201.082103, -309.394007) " points="202.283813 315.975065 199.373098 302.927334 199.880394 302.812949 202.791109 315.860679"></polygon>
                <polygon id="Path" transform="translate(213.086596, 337.735580) scale(-1, 1) translate(-213.086596, -337.735580) " points="227.570394 314.76102 199.044343 360.71014 198.602797 360.434575 225.522498 317.074724 202.33527 335.711739 202.009634 335.306191"></polygon>
                <polygon id="Path" transform="translate(216.405201, 389.942099) scale(-1, 1) translate(-216.405201, -389.942099) " points="232.756406 365.064582 205.420889 360.829724 205.500673 360.31499 233.611168 364.672032 199.641039 419.569207 199.199234 419.296242"></polygon>
                <polygon id="Path" transform="translate(216.334642, 433.850479) scale(-1, 1) translate(-216.334642, -433.850479) " points="232.694813 419.691391 199.279019 419.691391 199.279019 419.171458 233.390266 419.171458 224.72387 448.529501 224.22541 448.38132"></polygon>
                <polygon id="Path" transform="translate(213.197957, 314.581643) scale(-1, 1) translate(-213.197957, -314.581643) " points="223.499031 302.942932 209.943153 293.942884 210.230586 293.511339 224.217874 302.797351 202.612308 335.651946 202.17804 335.365983"></polygon>
                <polygon id="Path" transform="translate(233.226928, 246.574476) scale(-1, 1) translate(-233.226928, -246.574476) " points="261.263745 231.798097 251.440081 261.350855 250.946818 261.187076 260.418858 232.692643 205.381646 254.520489 205.190111 254.037211"></polygon>
                <polygon id="Path" transform="translate(220.792455, 433.944067) scale(-1, 1) translate(-220.792455, -433.944067) " points="233.194053 448.625688 207.998431 419.603003 208.390858 419.262446 233.586479 448.285132"></polygon>
                <polygon id="Path" transform="translate(212.353719, 481.150126) scale(-1, 1) translate(-212.353719, -481.150126) " points="207.937098 513.809746 216.254728 448.422914 216.77034 448.487906 208.452711 513.877338"></polygon>
                <polygon id="Path" transform="translate(212.353719, 533.019988) scale(-1, 1) translate(-212.353719, -533.019988) " points="216.258626 552.251027 207.940997 513.898135 208.448812 513.788949 216.766442 552.141841"></polygon>
                <polygon id="Path" transform="translate(223.691086, 449.950219) scale(-1, 1) translate(-223.691086, -449.950219) " points="237.976202 448.547698 206.983579 444.164659 207.056347 443.649925 240.398593 448.363122 214.066234 456.250513 213.917319 455.751376"></polygon>
                <polygon id="Path" transform="translate(237.916558, 567.351194) scale(-1, 1) translate(-237.916558, -567.351194) " points="266.950296 552.329017 226.329182 544.452025 226.428198 543.94249 268.326649 552.06645 207.786105 590.759899 207.506468 590.323154"></polygon>
                <path d="M224.944513,551.764889 L238.04819,562.285743 L223.13935,587.965256 L195.682466,635.248005 L195.213113,635.029633 L224.944513,551.764889 Z M225.188545,552.627979 L196.654437,632.539152 L222.690008,587.70269 L237.374308,562.410527 L225.188545,552.627979 Z" id="Shape" transform="translate(216.630652, 593.506447) scale(-1, 1) translate(-216.630652, -593.506447) "></path>
                <polygon id="Path" transform="translate(212.819304, 135.830079) scale(-1, 1) translate(-212.819304, -135.830079) " points="215.001301 176.969554 210.118576 94.7215398 210.637567 94.6906037 215.520032 176.938618"></polygon>
                <path d="M228.204514,156.545528 L245.819281,177.195725 L209.830363,178.415489 L228.204514,156.545528 Z M228.207373,157.350125 L210.979056,177.8563 L244.724124,176.712447 L228.207373,157.350125 Z" id="Shape" transform="translate(227.824822, 167.480508) scale(-1, 1) translate(-227.824822, -167.480508) "></path>
                <polygon id="Path" transform="translate(229.721855, 265.280642) scale(-1, 1) translate(-229.721855, -265.280642) " points="243.802311 261.47304 214.879675 257.071803 214.9579 256.557849 244.564035 261.062292 238.589791 274.003436 238.11784 273.785064"></polygon>
                <path d="M250.971507,94.446235 L250.986581,94.446235 L250.986581,94.7192001 L251.112105,94.9289932 L215.134882,116.483095 L233.83519,95.3854948 L233.952658,95.3854948 L250.971507,94.446235 Z M249.942881,95.0236211 L234.074284,95.899449 L217.761543,114.303534 L249.942881,95.0236211 Z" id="Shape" transform="translate(233.123494, 105.464665) scale(-1, 1) translate(-233.123494, -105.464665) "></path>
                <polygon id="Path" transform="translate(220.154827, 314.618038) scale(-1, 1) translate(-220.154827, -314.618038) " points="216.053317 335.462171 223.745142 293.680318 224.256337 293.773906 216.564511 335.555759"></polygon>
                <polygon id="Path" transform="translate(232.283804, 298.283029) scale(-1, 1) translate(-232.283804, -298.283029) " points="247.743472 293.698515 237.0744 286.617022 237.361573 286.185477 248.773917 293.758308 216.028887 310.380581 215.793691 309.91784"></polygon>
                <polygon id="Path" transform="translate(224.951400, 484.922243) scale(-1, 1) translate(-224.951400, -484.922243) " points="233.140776 513.916333 216.263044 456.073735 216.762024 455.928154 233.639756 513.770751"></polygon>
                <polygon id="Path" transform="translate(238.848767, 519.943661) scale(-1, 1) translate(-238.848767, -519.943661) " points="260.706291 513.931931 216.033565 495.981228 216.22718 495.49769 261.663969 513.755153 228.41918 544.389633 228.067035 544.004882"></polygon>
                <polygon id="Path" transform="translate(238.952851, 84.475991) scale(-1, 1) translate(-238.952851, -84.475991) " points="258.572113 53.4445422 228.340434 115.50744 227.873161 115.279449 256.326964 56.8664843 219.728355 99.6185331 219.333589 99.2803164"></polygon>
                <polygon id="Path" transform="translate(224.219823, 280.147750) scale(-1, 1) translate(-224.219823, -280.147750) " points="220.857557 286.284264 227.117414 273.777265 227.582089 274.011235 221.322231 286.518234"></polygon>
                <polygon id="Path" transform="translate(232.550447, 266.787279) scale(-1, 1) translate(-232.550447, -266.787279) " points="243.344133 273.730471 220.423028 257.025009 220.728913 256.604903 244.677865 274.058029 224.948671 276.969656 224.873045 276.454922"></polygon>
                <polygon id="Path" transform="translate(236.328529, 322.829087) scale(-1, 1) translate(-236.328529, -322.829087) " points="248.470111 335.690941 223.814272 310.331187 224.186947 309.967233 248.842787 335.326988"></polygon>
                <polygon id="Path" transform="translate(225.675181, 348.040661) scale(-1, 1) translate(-225.675181, -348.040661) " points="223.743063 360.535962 227.092205 335.475169 227.607298 335.54276 224.258416 360.606153"></polygon>
                <polygon id="Path" transform="translate(252.214149, 338.974321) scale(-1, 1) translate(-252.214149, -338.974321) " points="279.892065 335.646747 223.464986 321.938701 223.587652 321.434366 280.963312 335.371182 257.832999 356.514276 257.482414 356.129526"></polygon>
                <polygon id="Path" transform="translate(233.769828, 293.234475) scale(-1, 1) translate(-233.769828, -293.234475) " points="227.160295 299.888323 240.000709 286.224472 240.379362 286.580626 227.538948 300.244478"></polygon>
                <polygon id="Path" transform="translate(230.370009, 390.000591) scale(-1, 1) translate(-230.370009, -390.000591) " points="227.091166 419.405428 233.13194 360.543761 233.648852 360.598354 227.608337 419.457421"></polygon>
                <polygon id="Path" transform="translate(233.292939, 281.708850) scale(-1, 1) translate(-233.292939, -281.708850) " points="238.126156 285.889115 226.239522 276.920263 226.552423 276.504316 240.346356 286.913384 227.090906 283.978359 227.203176 283.471424"></polygon>
                <polygon id="Path" transform="translate(238.173455, 366.654279) scale(-1, 1) translate(-238.173455, -366.654279) " points="248.384609 360.70494 229.520833 356.576669 229.631805 356.067134 249.609708 360.439774 227.047505 377.241424 226.737202 376.822877"></polygon>
                <polygon id="Path" transform="translate(242.909215, 128.198625) scale(-1, 1) translate(-242.909215, -128.198625) " points="235.790567 115.516538 227.214871 99.572519 227.672529 99.3263305 236.248485 115.27009 236.248485 115.27009 258.603559 156.824472 258.145901 157.070921"></polygon>
                <polygon id="Path" transform="translate(253.993194, 158.372054) scale(-1, 1) translate(-253.993194, -158.372054) " points="280.099713 157.070921 227.000466 138.933042 227.168352 138.440925 280.985922 156.824472 262.932729 178.303183 262.534845 177.968606"></polygon>
                <polygon id="Path" transform="translate(241.407208, 410.459973) scale(-1, 1) translate(-241.407208, -410.459973) " points="249.150491 419.444423 233.116867 377.124439 233.602852 376.939863 249.69755 419.421026 242.702217 443.980083 242.202197 443.837101"></polygon>
                <polygon id="Path" transform="translate(247.430570, 469.833774) scale(-1, 1) translate(-247.430570, -469.833774) " points="261.16239 455.985347 254.27387 444.037276 254.723991 443.777309 261.779098 456.013943 233.505915 495.89024 233.082042 495.588678"></polygon>
                <polygon id="Path" transform="translate(252.995104, 612.829774) scale(-1, 1) translate(-252.995104, -612.829774) " points="267.971905 635.263603 237.588713 590.687108 238.018044 590.395945 268.401496 634.969841"></polygon>
                <polygon id="Path" transform="translate(249.648041, 679.256473) scale(-1, 1) translate(-249.648041, -679.256473) " points="261.166548 635.336394 242.859447 632.934301 242.927017 632.416967 261.818601 634.89705 237.98036 726.095979 237.477482 725.963396"></polygon>
                <polygon id="Path" transform="translate(239.814371, 291.896946) scale(-1, 1) translate(-239.814371, -291.896946) " points="239.179211 300.054702 239.93028 283.713193 240.449531 283.73659 239.698462 300.080699"></polygon>
                <polygon id="Path" transform="translate(246.766693, 289.548147) scale(-1, 1) translate(-246.766693, -289.548147) " points="239.277188 295.167327 253.932901 283.520818 254.256198 283.928966 239.600485 295.575475"></polygon>
                <polygon id="Path" transform="translate(251.253743, 285.799426) scale(-1, 1) translate(-251.253743, -285.799426) " points="262.200892 283.746989 248.341208 279.779897 248.484405 279.278161 263.936146 283.702795 238.739485 292.320692 238.57134 291.829355"></polygon>
                <polygon id="Path" transform="translate(251.840824, 301.072472) scale(-1, 1) translate(-251.840824, -301.072472) " points="249.503935 295.61707 239.746281 292.323291 239.912608 291.829355 249.670002 295.125733 263.935367 299.942916 255.224011 310.315589 254.826126 309.982831 263.047598 300.192484"></polygon>
                <polygon id="Path" transform="translate(244.908383, 410.470371) scale(-1, 1) translate(-244.908383, -410.470371) " points="249.19701 443.943688 240.104663 377.067246 240.619756 376.997055 249.712103 443.873497"></polygon>
                <polygon id="Path" transform="translate(247.228249, 428.367781) scale(-1, 1) translate(-247.228249, -428.367781) " points="253.856754 444.013879 240.124414 412.932256 240.599744 412.721683 254.332084 443.803306"></polygon>
                <polygon id="Path" transform="translate(250.840655, 469.619302) scale(-1, 1) translate(-250.840655, -469.619302) " points="261.807685 443.400357 240.354673 495.838246 239.873625 495.640672 260.830777 444.414227 249.337349 449.639559 249.122423 449.166419"></polygon>
                <polygon id="Path" transform="translate(255.561602, 268.171732) scale(-1, 1) translate(-255.561602, -268.171732) " points="244.338455 279.348352 266.412074 256.633759 266.784749 256.996152 244.71113 279.709706"></polygon>
                <polygon id="Path" transform="translate(262.326287, 264.075047) scale(-1, 1) translate(-262.326287, -264.075047) " points="279.243131 256.942859 263.445483 254.535827 263.523708 254.021873 281.01243 256.686532 243.861045 274.12822 243.640143 273.65768"></polygon>
                <polygon id="Path" transform="translate(253.793212, 206.382710) scale(-1, 1) translate(-253.793212, -206.382710) " points="262.333693 178.148763 262.333693 177.876058 262.415037 177.876058 292.863461 196.586643 214.952183 234.889362 214.722964 234.422721 291.788055 196.53595 262.20557 178.357516"></polygon>
                <path d="M291.311685,73.4224655 L277.740994,99.7222598 L244.652396,97.1238923 L291.311685,73.4224655 Z M246.535785,96.7500602 L277.437448,99.1768496 L290.111275,74.6154529 L246.535785,96.7500602 Z" id="Shape" transform="translate(267.982041, 86.572363) scale(-1, 1) translate(-267.982041, -86.572363) "></path>
                <polygon id="Path" transform="translate(268.927893, 186.668003) scale(-1, 1) translate(-268.927893, -186.668003) " points="292.258448 178.142004 256.760713 138.861291 257.146382 138.512676 292.947664 178.129785 245.306008 234.82333 244.908123 234.488753"></polygon>
                <polygon id="Path" transform="translate(269.326817, 232.841604) scale(-1, 1) translate(-269.326817, -232.841604) " points="292.863201 211.318438 277.730599 254.364769 277.240195 254.192411 291.951263 212.345307 246.019393 234.889362 245.790434 234.422461"></polygon>
                <polygon id="Path" transform="translate(263.836220, 339.004217) scale(-1, 1) translate(-263.836220, -339.004217) " points="280.716681 356.503878 246.585423 321.86851 246.9555 321.504557 281.087018 356.139924"></polygon>
                <polygon id="Path" transform="translate(263.260574, 380.554700) scale(-1, 1) translate(-263.260574, -380.554700) " points="279.462734 356.519476 246.482768 348.75427 246.602056 348.249934 280.03838 356.121727 277.324398 377.064647 272.684406 412.859466 272.168793 412.791874"></polygon>
                <polygon id="Path" transform="translate(256.254326, 301.112767) scale(-1, 1) translate(-256.254326, -301.112767) " points="263.653391 310.315589 248.457637 292.242702 248.855521 291.909944 264.051015 309.982831"></polygon>
                <polygon id="Path" transform="translate(264.779214, 315.912673) scale(-1, 1) translate(-264.779214, -315.912673) " points="277.560894 311.069492 263.009915 313.918728 262.910119 313.409193 280.852081 309.894443 280.989561 310.393579 248.74403 321.930902 248.568868 321.442165"></polygon>
                <polygon id="Path" transform="translate(255.510924, 519.968358) scale(-1, 1) translate(-255.510924, -519.968358) " points="261.315203 544.25965 249.202468 495.801851 249.706905 495.677067 261.81938 544.134866"></polygon>
                <polygon id="Path" transform="translate(268.108345, 552.140541) scale(-1, 1) translate(-268.108345, -552.140541) " points="286.448971 544.277847 249.141655 514.046316 249.468851 513.640768 287.075035 544.116668 268.270773 590.640314 267.788686 590.445339"></polygon>
                <polygon id="Path" transform="translate(253.272922, 431.114329) scale(-1, 1) translate(-253.272922, -431.114329) " points="253.834924 449.413388 252.191669 412.838668 252.71092 412.815271 254.354175 449.389991"></polygon>
                <polygon id="Path" transform="translate(257.009293, 472.569924) scale(-1, 1) translate(-257.009293, -472.569924) " points="252.196347 495.690065 261.312344 449.350996 261.822239 449.452383 252.706502 495.788853"></polygon>
                <polygon id="Path" transform="translate(296.183755, 441.848356) scale(-1, 1) translate(-296.183755, -441.848356) " points="294.930848 436.610026 297.935642 446.941104 297.436403 447.086685 294.431869 436.755608"></polygon>
                <polygon id="Path" transform="translate(271.653181, 454.814196) scale(-1, 1) translate(-271.653181, -454.814196) " points="252.380865 459.975836 290.784638 449.150821 290.925496 449.652557 252.521723 460.477572"></polygon>
                <polygon id="Path" transform="translate(274.451626, 434.658976) scale(-1, 1) translate(-274.451626, -434.658976) " points="294.917854 448.701079 250.917451 419.649797 251.203845 419.215652 297.9858 450.102299 251.14667 436.932385 251.287528 436.433249"></polygon>
                <polygon id="Path" transform="translate(267.036578, 380.663886) scale(-1, 1) translate(-267.036578, -380.663886) " points="279.737433 412.921858 253.853376 348.59829 254.335463 348.405914 280.21978 412.729482"></polygon>
                <polygon id="Path" transform="translate(248.949989, 267.946471) scale(-1, 1) translate(-248.949989, -267.946471) " points="253.486937 256.107846 258.020117 276.915063 243.857147 279.785096 243.753972 279.275561 257.399771 276.509515 253.263176 257.521805 240.328684 279.660312 239.879862 279.397746"></polygon>
                <polygon id="Path" transform="translate(278.103664, 407.287079) scale(-1, 1) translate(-278.103664, -407.287079) " points="301.059984 412.721683 253.041754 395.374103 253.218216 394.885366 303.165574 412.929657 258.403448 419.688792 258.326002 419.174058"></polygon>
                <polygon id="Path" transform="translate(270.907570, 679.832299) scale(-1, 1) translate(-270.907570, -679.832299) " points="280.041499 725.056112 285.152663 632.661336 285.671654 632.689933 280.454457 727.003263 256.143485 679.468346 256.606081 679.231776"></polygon>
                <polygon id="Path" transform="translate(271.586650, 656.073940) scale(-1, 1) translate(-271.586650, -656.073940) " points="257.588967 679.088795 286.549807 632.539152 286.991092 632.812117 257.87692 679.608728 256.182208 679.600929 256.184807 679.080996"></polygon>
                <polygon id="Path" transform="translate(275.092113, 643.150994) scale(-1, 1) translate(-275.092113, -643.150994) " points="293.168306 632.856311 255.789781 627.948139 255.857351 627.433405 294.394445 632.494958 263.503957 658.868582 263.166626 658.470833"></polygon>
                <polygon id="Path" transform="translate(297.062688, 119.002822) scale(-1, 1) translate(-297.062688, -119.002822) " points="335.301693 99.7092615 257.925779 99.7092615 257.925779 99.189328 336.199597 99.189328 313.448457 138.816317 312.997815 138.55739"></polygon>
                <polygon id="Path" transform="translate(258.810298, 285.751332) scale(-1, 1) translate(-258.810298, -285.751332) " points="262.994582 279.787696 259.82476 279.787696 259.82476 279.267762 264.057253 279.267762 253.973703 292.234903 253.563344 291.915144"></polygon>
                <polygon id="Path" transform="translate(276.818791, 254.257013) scale(-1, 1) translate(-276.818791, -254.257013) " points="292.053138 254.326034 260.751771 234.876883 261.02595 234.4352 292.885811 254.231406 272.918562 274.078826 272.552384 273.709674"></polygon>
                <polygon id="Path" transform="translate(307.306587, 487.514112) scale(-1, 1) translate(-307.306587, -487.514112) " points="312.486101 479.421347 302.572256 495.874642 302.127073 495.604276 312.040918 479.153582"></polygon>
                <polygon id="Path" transform="translate(276.211049, 477.982431) scale(-1, 1) translate(-276.211049, -477.982431) " points="290.654436 495.903238 261.36666 460.391783 261.767403 460.061625 291.055439 495.57308"></polygon>
                <polygon id="Path" transform="translate(286.509914, 504.766804) scale(-1, 1) translate(-286.509914, -504.766804) " points="310.641435 495.999426 260.756189 495.999426 260.756189 495.479492 312.263639 495.479492 286.259515 514.054115 285.957268 513.632969"></polygon>
                <polygon id="Path" transform="translate(261.893967, 281.585366) scale(-1, 1) translate(-261.893967, -281.585366) " points="265.386306 279.787696 257.189523 279.787696 257.189523 279.267762 266.598411 279.267762 262.189977 283.902969 261.813403 283.544215"></polygon>
                <polygon id="Path" transform="translate(272.936105, 295.242718) scale(-1, 1) translate(-272.936105, -295.242718) " points="285.104325 282.278177 282.972226 286.518234 282.507811 286.284264 283.067344 285.171607 261.144198 308.207259 260.767884 307.848505"></polygon>
                <path d="M281.516868,284.932437 L277.843649,313.82514 L262.684019,322.328651 L281.516868,284.932437 Z M263.913536,321.044416 L277.361042,313.500181 L280.620523,287.870061 L263.913536,321.044416 Z" id="Shape" transform="translate(272.100443, 303.630544) scale(-1, 1) translate(-272.100443, -303.630544) "></path>
                <polygon id="Path" transform="translate(275.671657, 290.910372) scale(-1, 1) translate(-275.671657, -290.910372) " points="284.355075 279.655113 270.345958 274.136019 270.536453 273.652481 285.134731 279.402945 266.64571 308.168264 266.208583 307.8875"></polygon>
                <polygon id="Path" transform="translate(277.549199, 552.192534) scale(-1, 1) translate(-277.549199, -552.192534) " points="286.658959 590.603919 267.934482 513.905934 268.439439 513.78115 287.163916 590.479135"></polygon>
                <polygon id="Path" transform="translate(287.106091, 556.212920) scale(-1, 1) translate(-287.106091, -556.212920) " points="305.381097 589.915007 267.542835 521.507361 267.997634 521.255194 306.669348 591.170646 295.436065 585.331793 295.67568 584.871652"></polygon>
                <polygon id="Path" transform="translate(296.527584, 625.056010) scale(-1, 1) translate(-296.527584, -625.056010) " points="314.07556 585.227807 281.37601 568.238981 281.615624 567.77624 314.721895 584.978239 278.821078 682.335779 278.333273 682.156402"></polygon>
                <polygon id="Path" transform="translate(314.391840, 342.541065) scale(-1, 1) translate(-314.391840, -342.541065) " points="314.614562 342.34089 314.677194 342.632053 314.169119 342.741239 314.106486 342.452676"></polygon>
                <polygon id="Path" transform="translate(280.440293, 335.095618) scale(-1, 1) translate(-280.440293, -335.095618) " points="280.642094 348.512501 279.718981 321.694333 280.238232 321.678735 281.161605 348.494303"></polygon>
                <polygon id="Path" transform="translate(296.997196, 368.836700) scale(-1, 1) translate(-296.997196, -368.836700) " points="313.627518 348.699677 279.590598 342.944013 279.67714 342.429279 314.403795 348.304527 291.150037 395.24412 290.684322 395.01275"></polygon>
                <polygon id="Path" transform="translate(286.825415, 186.671382) scale(-1, 1) translate(-286.825415, -186.671382) " points="280.644173 234.623936 292.490785 138.655137 293.006657 138.718829 281.160045 234.687627"></polygon>
                <polygon id="Path" transform="translate(286.825415, 254.275341) scale(-1, 1) translate(-286.825415, -254.275341) " points="292.499881 273.96964 280.653269 234.731302 281.150949 234.581041 292.997561 273.81886"></polygon>
                <polygon id="Path" transform="translate(297.659124, 308.098073) scale(-1, 1) translate(-297.659124, -308.098073) " points="310.153371 307.918696 314.157944 273.863054 314.674336 273.922846 310.650791 308.137068 281.0366 342.333091 280.643913 341.992535"></polygon>
                <polygon id="Path" transform="translate(297.690051, 308.027882) scale(-1, 1) translate(-297.690051, -308.027882) " points="280.668862 342.047128 314.244745 273.779865 314.711239 274.008635 281.135356 342.275899"></polygon>
                <polygon id="Path" transform="translate(297.553351, 293.026501) scale(-1, 1) translate(-297.553351, -293.026501) " points="313.726794 274.081426 286.51914 269.765978 286.600484 269.253844 314.682392 273.707074 280.83311 316.799159 280.42431 316.4768"></polygon>
                <path d="M310.542679,307.497549 L314.747104,321.803519 L280.754884,342.806231 L280.596874,342.171912 L310.542679,307.497549 Z M281.849001,341.516796 L310.31294,308.558214 L314.136633,321.569549 L281.849001,341.516796 Z" id="Shape" transform="translate(297.671989, 325.151890) scale(-1, 1) translate(-297.671989, -325.151890) "></path>
                <polygon id="Path" transform="translate(308.550788, 119.068204) scale(-1, 1) translate(-308.550788, -119.068204) " points="336.049123 138.898986 280.751766 99.6614276 281.052453 99.2374218 336.34981 138.47498"></polygon>
                <path d="M314.816493,658.10168 L314.671737,679.343562 L314.344801,726.933072 L286.585151,682.192797 L314.816493,658.10168 Z M287.262152,682.296784 L313.837505,725.128903 L314.288926,659.235135 L287.262152,682.296784 Z" id="Shape" transform="translate(300.700822, 692.517376) scale(-1, 1) translate(-300.700822, -692.517376) "></path>
                <polygon id="Path" transform="translate(296.676758, 517.613060) scale(-1, 1) translate(-296.676758, -517.613060) " points="286.818008 521.138209 306.34839 513.601773 306.535507 514.085311 287.005126 521.624346"></polygon>
                <polygon id="Path" transform="translate(296.602431, 469.757084) scale(-1, 1) translate(-296.602431, -469.757084) " points="290.632605 479.150982 302.127073 460.092821 302.572256 460.360587 291.077789 479.421347"></polygon>
                <polygon id="Path" transform="translate(303.938083, 459.111446) scale(-1, 1) translate(-303.938083, -459.111446) " points="290.877157 457.737522 317.04319 459.968037 316.99901 460.485371 290.832977 458.254856"></polygon>
                <path d="M306.073951,681.23352 L329.221416,745.640278 L291.417459,765 L306.073951,681.23352 Z M306.248074,683.256061 L292.109533,764.06152 L328.57768,745.38551 L306.248074,683.256061 Z" id="Shape" transform="translate(310.319437, 723.116760) scale(-1, 1) translate(-310.319437, -723.116760) "></path>
                <polygon id="Path" transform="translate(304.998416, 208.759586) scale(-1, 1) translate(-304.998416, -208.759586) " points="317.013044 234.766917 292.513915 182.974525 292.983788 182.752254 317.482916 234.544646"></polygon>
                <polygon id="Path" transform="translate(314.381705, 237.653978) scale(-1, 1) translate(-314.381705, -237.653978) " points="335.686323 234.750799 292.420616 206.123783 292.70727 205.690158 336.342793 234.561544 320.453145 269.617797 319.979894 269.402025"></polygon>
                <polygon id="Path" transform="translate(303.748367, 452.247025) scale(-1, 1) translate(-303.748367, -452.247025) " points="316.202721 459.645678 290.691859 443.686321 290.416121 444.128264 317.080614 460.807729 313.01055 446.753928 312.807579 446.753928 312.807579 447.016494 312.565626 447.086685"></polygon>
                <polygon id="Path" transform="translate(305.653327, 441.969240) scale(-1, 1) translate(-305.653327, -441.969240) " points="316.255998 446.701935 313.371011 436.755608 313.87025 436.610026 316.978739 447.328454 294.327914 444.164659 294.399903 443.649925"></polygon>
                <polygon id="Path" transform="translate(297.764378, 428.057121) scale(-1, 1) translate(-297.764378, -428.057121) " points="297.582718 436.685416 297.426267 419.434024 297.946038 419.428825 298.102489 436.680217"></polygon>
                <polygon id="Path" transform="translate(307.314254, 440.295055) scale(-1, 1) translate(-307.314254, -440.295055) " points="297.594673 443.662924 316.851135 436.438448 317.033834 436.927186 297.777112 444.151661"></polygon>
                <polygon id="Path" transform="translate(318.533035, 428.522461) scale(-1, 1) translate(-318.533035, -428.522461) " points="300.720677 419.917562 341.085025 437.12736 300.838925 432.809313 300.894281 432.291979 337.67481 436.238274 301.012529 420.606474 296.706749 431.798042 300.865433 432.28418 300.80514 432.801514 295.981045 432.237386"></polygon>
                <polygon id="Path" transform="translate(337.286905, 383.832880) scale(-1, 1) translate(-337.286905, -383.832880) " points="334.010297 380.524804 340.911733 386.756206 340.563487 387.140957 333.662076 380.912154"></polygon>
                <polygon id="Path" transform="translate(300.459908, 407.280580) scale(-1, 1) translate(-300.459908, -407.280580) " points="302.823046 419.486018 297.588436 395.184328 298.096511 395.075142 303.331381 419.376832"></polygon>
                <path d="M299.603326,386.400052 L336.478713,419.678393 L297.182495,420.528484 L299.603326,386.400052 Z M300.046431,387.499711 L297.741248,419.995552 L335.158236,419.187056 L300.046431,387.499711 Z" id="Shape" transform="translate(316.830604, 403.464268) scale(-1, 1) translate(-316.830604, -403.464268) "></path>
                <polygon id="Path" transform="translate(309.636459, 476.397934) scale(-1, 1) translate(-309.636459, -476.397934) " points="316.611261 479.291364 302.037932 458.14307 302.465963 457.849308 317.234986 479.280965 307.228362 494.94656 306.790195 494.668396"></polygon>
                <polygon id="Path" transform="translate(309.000649, 544.693794) scale(-1, 1) translate(-309.000649, -544.693794) " points="306.183623 567.979014 311.301024 521.351381 311.817676 521.408574 306.700275 568.036207"></polygon>
                <polygon id="Path" transform="translate(332.753141, 513.197525) scale(-1, 1) translate(-332.753141, -513.197525) " points="329.291611 504.755105 360.078925 521.639944 332.319535 521.639944 332.319535 521.120011 358.04974 521.120011 329.322278 505.366027 305.721806 521.59575 305.427356 521.166805"></polygon>
                <polygon id="Path" transform="translate(322.359014, 261.236210) scale(-1, 1) translate(-322.359014, -261.236210) " points="335.904367 269.547606 308.280117 206.010697 308.757007 205.803244 336.437911 269.472216 330.497713 316.669176 329.9821 316.604184"></polygon>
                <polygon id="Path" transform="translate(335.627680, 544.618404) scale(-1, 1) translate(-335.627680, -544.618404) " points="337.902547 521.639944 311.323634 521.639944 311.323634 521.120011 338.234421 521.120011 359.931726 567.898424 359.460294 568.116796"></polygon>
                <polygon id="Path" transform="translate(313.018606, 625.126201) scale(-1, 1) translate(-313.018606, -625.126201) " points="311.299465 682.239591 314.217977 567.999811 314.737748 568.015409 311.818976 682.25259"></polygon>
                <path d="M311.222279,520.301116 L360.677233,567.971215 L342.973585,594.378635 L311.222279,520.301116 Z M312.713319,522.461439 L343.074681,593.294574 L360.00309,568.044006 L312.713319,522.461439 Z" id="Shape" transform="translate(335.949756, 557.339876) scale(-1, 1) translate(-335.949756, -557.339876) "></path>
                <polygon id="Path" transform="translate(319.079782, 479.660517) scale(-1, 1) translate(-319.079782, -479.660517) " points="325.613688 494.650198 320.880917 458.028685 321.396269 457.963693 326.178419 494.964758 312.219199 501.339142 312.174239 501.35734 311.981144 500.876402 312.014409 500.860804"></polygon>
                <polygon id="Path" transform="translate(308.971932, 368.740512) scale(-1, 1) translate(-308.971932, -368.740512) " points="302.823305 342.296696 303.800214 342.457875 315.120299 395.072542 315.120559 395.072542 314.613003 395.184328 314.612483 395.184328"></polygon>
                <polygon id="Path" transform="translate(344.102319, 328.758929) scale(-1, 1) translate(-344.102319, -328.758929) " points="336.306332 324.949116 352.112374 332.093002 351.898229 332.568741 336.092264 325.422256"></polygon>
                <polygon id="Path" transform="translate(314.477862, 329.399747) scale(-1, 1) translate(-314.477862, -329.399747) " points="314.217977 342.161513 314.217977 316.63798 314.737748 316.63798 314.737748 342.161513"></polygon>
                <polygon id="Path" transform="translate(333.118669, 305.307330) scale(-1, 1) translate(-333.118669, -305.307330) " points="351.45593 316.440405 345.346286 285.278193 345.856441 285.176806 352.063022 316.835554 314.289705 325.437854 314.174316 324.930918"></polygon>
                <path d="M326.706766,591.706178 L341.457077,682.281186 L314.208881,742.224315 L326.706766,591.706178 Z M326.874392,595.969632 L314.974607,739.284091 L340.918854,682.208395 L326.874392,595.969632 Z" id="Shape" transform="translate(327.832979, 666.965246) scale(-1, 1) translate(-327.832979, -666.965246) "></path>
                <path d="M318.75729,331.944821 L341.090534,342.052327 L340.613905,342.762036 L340.612865,342.762036 L314.090633,381.699853 L318.75729,331.944821 Z M319.206632,332.719522 L314.796482,379.739704 L340.182495,342.470874 L340.183275,342.470874 L340.316076,342.273299 L319.206632,332.719522 Z" id="Shape" transform="translate(327.590584, 356.822337) scale(-1, 1) translate(-327.590584, -356.822337) "></path>
                <polygon id="Path" transform="translate(326.506784, 445.161632) scale(-1, 1) translate(-326.506784, -445.161632) " points="335.810029 444.055473 316.68221 432.775517 316.945993 432.325774 336.331358 443.759111 336.252353 457.997489 335.732583 457.994889"></polygon>
                <polygon id="Path" transform="translate(339.776645, 450.835406) scale(-1, 1) translate(-339.776645, -450.835406) " points="339.070732 455.777373 338.560655 455.675986 340.477803 445.893438 340.692728 445.935033 340.992635 445.935033 340.992635 445.968828"></polygon>
                <polygon id="Path" transform="translate(326.610218, 445.273417) scale(-1, 1) translate(-326.610218, -445.273417) " points="335.991948 458.153469 316.813452 432.707926 317.228488 432.393366 336.406985 457.838909"></polygon>
                <polygon id="Path" transform="translate(328.734638, 465.149174) scale(-1, 1) translate(-328.734638, -465.149174) " points="340.134234 458.228859 316.706899 455.985347 316.756407 455.468013 340.762377 457.766119 337.181677 474.830335 336.672822 474.723748"></polygon>
                <polygon id="Path" transform="translate(323.314873, 487.946956) scale(-1, 1) translate(-323.314873, -487.946956) " points="325.833291 474.723748 326.341887 474.830335 320.802171 501.170164 320.584907 501.12337 320.287858 501.12337 320.287858 501.089574"></polygon>
                <polygon id="Path" transform="translate(335.238034, 475.400962) scale(-1, 1) translate(-335.238034, -475.400962) " points="324.713653 484.563489 320.955816 465.523526 320.445869 465.622313 324.324943 485.278398 350.030199 475.020111 349.837624 474.536572"></polygon>
                <path d="M329.031908,455.356227 L350.242993,475.365866 L319.539908,465.697704 L329.031908,455.356227 Z M329.058546,456.097132 L320.475444,465.448136 L348.238498,474.190817 L329.058546,456.097132 Z" id="Shape" transform="translate(334.891451, 465.361047) scale(-1, 1) translate(-334.891451, -465.361047) "></path>
                <polygon id="Path" transform="translate(336.318208, 245.037163) scale(-1, 1) translate(-336.318208, -245.037163) " points="336.483859 204.796133 352.255259 285.176806 351.745364 285.278193 336.390041 207.017809 320.880943 261.340456 320.381157 261.197475"></polygon>
                <path d="M320.268887,260.742533 L352.265239,285.182005 L320.268887,325.93699 L320.268887,260.742533 Z M320.788657,261.792799 L320.788657,324.434382 L351.531063,285.272994 L320.788657,261.792799 Z" id="Shape" transform="translate(336.267063, 293.339761) scale(-1, 1) translate(-336.267063, -293.339761) "></path>
                <polygon id="Path" transform="translate(311.033992, 504.873390) scale(-1, 1) translate(-311.033992, -504.873390) " points="309.840989 495.445697 336.245077 514.301084 285.822908 505.316633 285.914127 504.804499 334.067757 513.386001 309.767701 496.033221 296.139835 501.333943 296.057971 501.383337 295.978186 501.383337 295.978186 501.110372 295.852142 500.902398 295.910096 500.866003"></polygon>
                <path d="M325.579903,483.978564 L346.70294,501.20396 L335.954083,505.389424 L325.579903,483.978564 Z M327.072139,485.865923 L336.212669,504.731708 L345.68315,501.04278 L327.072139,485.865923 Z" id="Shape" transform="translate(336.141421, 494.683994) scale(-1, 1) translate(-336.141421, -494.683994) "></path>
                <path d="M328.560788,567.050933 L362.648333,593.752116 L338.554158,653.037529 L328.560788,567.050933 Z M329.220922,568.228582 L338.836289,650.962994 L362.019151,593.921094 L329.220922,568.228582 Z" id="Shape" transform="translate(345.604560, 610.044231) scale(-1, 1) translate(-345.604560, -610.044231) "></path>
                <polygon id="Path" transform="translate(308.446314, 166.317937) scale(-1, 1) translate(-308.446314, -166.317937) " points="335.521296 138.848033 280.636117 126.511051 280.750206 126.003856 336.459482 138.525934 299.84528 183.028599 280.433146 206.632018 280.433146 202.791529 280.952917 202.791529 280.952917 205.181404 299.444017 182.698441"></polygon>
                <path d="M335.939451,163.48586 L348.711151,175.093374 L348.711151,204.500031 L335.939451,163.48586 Z M337.003838,165.155886 L348.191381,201.082768 L348.191381,175.323445 L337.003838,165.155886 Z" id="Shape" transform="translate(342.325301, 183.992945) scale(-1, 1) translate(-342.325301, -183.992945) "></path>
                <path d="M366,98.5136745 L366,175.796324 L335.939451,148.449124 L366,98.5136745 Z M336.604853,148.351636 L365.480229,174.620755 L365.480229,100.384915 L336.604853,148.351636 Z" id="Shape" transform="translate(350.969726, 137.154999) scale(-1, 1) translate(-350.969726, -137.154999) "></path>
                <path d="M335.89709,431.093532 L341.942698,431.798042 L341.928197,431.834437 L346.11248,432.286779 L346.400433,432.35697 L343.583536,446.74093 L335.89709,431.093532 Z M341.20808,432.237386 L336.784183,431.720052 L343.36991,445.126536 L345.789443,432.772917 L341.191266,432.27898 L341.20808,432.237386 Z" id="Shape" transform="translate(341.148762, 438.917231) scale(-1, 1) translate(-341.148762, -438.917231) "></path>
            </g>
        </g>
    </g>
</svg>