<?xml version="1.0" encoding="iso-8859-1"?>
<!-- Generator: Adobe Illustrator 23.0.2, SVG Export Plug-In . SVG Version: 6.00 Build 0)  -->
<svg version="1.1" id="_x34__Add_to_cart" xmlns="http://www.w3.org/2000/svg" xmlns:xlink="http://www.w3.org/1999/xlink" x="0px"
	 y="0px" viewBox="0 0 3872.983 3872.983" style="enable-background:new 0 0 3872.983 3872.983;" xml:space="preserve">
<g>
	<path d="M1878.123,2344.764c0.077,0,0.155-0.014,0.232-0.014h553.691c0.078,0,0.156,0.014,0.233,0.014
		c0.114,0,0.225-0.014,0.338-0.014h699.487c27.333,0,51.004-18.986,56.933-45.67l116.813-525.657
		c0.014-0.073,0.033-0.144,0.048-0.216l116.429-523.932c3.839-17.269-0.37-35.347-11.437-49.147
		c-11.072-13.8-27.806-21.828-45.496-21.828h-262.452c0-225.114-183.146-408.258-408.258-408.258
		c-225.112,0-408.258,183.144-408.258,408.258H992.821l-83.94-419.695c-5.451-27.262-29.389-46.886-57.189-46.886H507.589
		c-32.208,0-58.323,26.111-58.323,58.323c0,32.211,26.114,58.323,58.323,58.323h296.289l188.939,944.688
		c0.028,0.139,0.054,0.277,0.083,0.416l186.533,932.655c5.451,27.262,29.389,46.886,57.189,46.886h102.672
		c-27.991,41.732-44.35,91.891-44.35,145.806c0,144.716,117.733,262.452,262.452,262.452s262.452-117.736,262.452-262.452
		c0-53.916-16.359-104.074-44.35-145.806h876.055c-27.991,41.732-44.35,91.891-44.35,145.806
		c0,144.716,117.733,262.452,262.451,262.452c144.719,0,262.452-117.736,262.452-262.452c0-53.916-16.359-104.074-44.35-145.806
		h73.511c32.208,0,58.323-26.111,58.323-58.323s-26.114-58.323-58.323-58.323H1284.435l-58.323-291.613h651.673
		C1877.898,2344.75,1878.01,2344.764,1878.123,2344.764z M1703.201,2898.814c0,80.399-65.408,145.806-145.806,145.806
		s-145.806-65.408-145.806-145.806c0-80.398,65.408-145.806,145.806-145.806S1703.201,2818.416,1703.201,2898.814z
		 M3015.459,2898.814c0,80.399-65.408,145.806-145.806,145.806c-80.398,0-145.806-65.408-145.806-145.806
		c0-80.398,65.408-145.806,145.806-145.806C2950.051,2753.008,3015.459,2818.416,3015.459,2898.814z M1821.64,1819.847h667.121
		l-102.063,408.258h-462.994L1821.64,1819.847z M1803.472,2228.104h-600.689l-81.652-408.258h580.276L1803.472,2228.104z
		 M3085.321,2228.104h-578.392l102.063-408.258h567.053L3085.321,2228.104z M3292.691,1294.943l-90.725,408.258h-563.813
		l29.411-117.646c8.975,0.592,17.999,1.001,27.121,1.001c184.583,0,340.866-123.171,391.188-291.613H3292.691z M2694.685,886.685
		c160.797,0,291.613,130.816,291.613,291.613s-130.816,291.613-291.613,291.613s-291.613-130.816-291.613-291.613
		S2533.888,886.685,2694.685,886.685z M2303.497,1294.943c36.786,123.136,130.172,222.071,249.896,266.378l-35.47,141.88h-725.444
		l-102.064-408.258H2303.497z M1570.182,1294.943l102.064,408.258h-574.444l-81.652-408.258H1570.182z"/>
	<path d="M2578.04,1236.621h58.323v58.323c0,32.211,26.114,58.323,58.323,58.323c32.208,0,58.323-26.111,58.323-58.323v-58.323
		h58.323c32.208,0,58.323-26.111,58.323-58.323c0-32.211-26.114-58.323-58.323-58.323h-58.323v-58.323
		c0-32.211-26.114-58.323-58.323-58.323c-32.208,0-58.323,26.111-58.323,58.323v58.323h-58.323
		c-32.208,0-58.323,26.111-58.323,58.323C2519.717,1210.51,2545.831,1236.621,2578.04,1236.621z"/>
</g>
</svg>
