<svg width="50" height="50" viewBox="0 0 50 50" fill="none" xmlns="http://www.w3.org/2000/svg">
<path d="M17.9199 7.8125C12.3718 7.8125 7.8125 12.3657 7.8125 17.9199V32.0801C7.8125 37.6282 12.3657 42.1875 17.9199 42.1875H32.0801C37.6282 42.1875 42.1875 37.6343 42.1875 32.0801V17.9199C42.1875 12.3718 37.6343 7.8125 32.0801 7.8125H17.9199ZM17.9199 10.9375H32.0801C35.9436 10.9375 39.0625 14.0564 39.0625 17.9199V32.0801C39.0625 35.9436 35.9436 39.0625 32.0801 39.0625H17.9199C14.0564 39.0625 10.9375 35.9436 10.9375 32.0801V17.9199C10.9375 14.0564 14.0564 10.9375 17.9199 10.9375ZM34.2285 14.3555C33.4412 14.3555 32.8125 14.9841 32.8125 15.7715C32.8125 16.5588 33.4412 17.1875 34.2285 17.1875C35.0159 17.1875 35.6445 16.5588 35.6445 15.7715C35.6445 14.9841 35.0159 14.3555 34.2285 14.3555ZM25 15.625C19.8425 15.625 15.625 19.8425 15.625 25C15.625 30.1575 19.8425 34.375 25 34.375C30.1575 34.375 34.375 30.1575 34.375 25C34.375 19.8425 30.1575 15.625 25 15.625ZM25 18.75C28.4729 18.75 31.25 21.5271 31.25 25C31.25 28.4729 28.4729 31.25 25 31.25C21.5271 31.25 18.75 28.4729 18.75 25C18.75 21.5271 21.5271 18.75 25 18.75Z" fill="white"/>
</svg>
