<svg width="50" height="50" viewBox="0 0 50 50" fill="none" xmlns="http://www.w3.org/2000/svg">
<path d="M33.3333 6.25C27.6756 6.25 23.084 10.8216 22.9614 16.451C17.9591 15.851 14.7017 13.9807 12.7034 12.1379C10.4875 10.0941 9.78597 8.2784 9.78597 8.2784C9.68355 8.02035 9.51424 7.79425 9.29545 7.62335C9.07666 7.45245 8.81628 7.34293 8.54112 7.30605C8.26595 7.26916 7.98593 7.30625 7.72985 7.4135C7.47378 7.52076 7.2509 7.69429 7.08415 7.91626C7.08415 7.91626 5.20833 10.4167 5.20833 14.0625C5.20833 16.1469 5.86645 17.6891 6.6508 18.9962C6.6219 18.9826 6.427 18.9148 6.427 18.9148C6.17797 18.7905 5.90025 18.7349 5.62255 18.7538C5.34485 18.7728 5.07725 18.8656 4.84743 19.0226C4.6176 19.1796 4.43388 19.3952 4.31527 19.647C4.19666 19.8988 4.14747 20.1777 4.17277 20.4549C4.17277 20.4549 4.77417 24.8509 8.90706 28.064L8.47575 28.1718C8.24162 28.2302 8.02421 28.3421 7.84056 28.4987C7.65691 28.6552 7.512 28.8521 7.41721 29.0741C7.32241 29.296 7.2803 29.5368 7.29417 29.7777C7.30804 30.0186 7.37751 30.2531 7.49715 30.4626C7.49715 30.4626 8.19797 31.6481 9.66593 32.8959C10.5363 33.6357 11.8149 34.3991 13.3219 35.1054C11.4711 35.7817 8.71127 36.4583 4.6875 36.4583C4.38724 36.4583 4.09333 36.5448 3.84093 36.7074C3.58853 36.87 3.38833 37.1019 3.26427 37.3754C3.14022 37.6488 3.09757 37.9522 3.14142 38.2492C3.18528 38.5463 3.31378 38.8244 3.51155 39.0503C3.51155 39.0503 4.70555 40.3656 7.06583 41.51C9.42612 42.6544 13.062 43.75 18.2292 43.75C27.3122 43.75 33.8382 39.3929 37.911 33.8704C41.9838 28.348 43.75 21.7303 43.75 16.6667C43.75 16.3454 43.7299 16.0286 43.7012 15.7145C45.9004 13.5954 46.7257 12.0023 46.7651 11.9242C46.9631 11.5274 46.8893 11.0507 46.582 10.7341C46.2758 10.4163 45.8011 10.3269 45.398 10.5123L45.2291 10.5896C45.0843 10.6563 44.9395 10.7234 44.7937 10.789C45.2177 10.1129 45.5522 9.39049 45.7845 8.64258C45.9137 8.23008 45.7742 7.77806 45.4325 7.51139C45.0909 7.24473 44.6203 7.21618 44.2505 7.44222C42.9773 8.216 41.7569 8.7577 40.4867 9.12069C38.6173 7.34737 36.1009 6.25 33.3333 6.25ZM33.3333 9.375C37.3783 9.375 40.625 12.6217 40.625 16.6667C40.625 20.978 39.0058 27.1207 35.3963 32.015C31.7868 36.9092 26.3336 40.625 18.2292 40.625C14.3071 40.625 11.6981 39.9156 9.74324 39.1479C11.791 38.83 13.5541 38.4056 14.8214 37.915C17.0189 37.0644 18.2048 36.0819 18.2048 36.0819C18.4223 35.8953 18.5842 35.6524 18.6729 35.3798C18.7617 35.1072 18.7737 34.8155 18.7077 34.5366C18.6418 34.2576 18.5004 34.0022 18.299 33.7982C18.0976 33.5943 17.844 33.4496 17.5659 33.3801C14.7297 32.6711 12.9108 31.5243 11.7696 30.5684L13.3993 30.1615C13.7215 30.0811 14.0098 29.9001 14.2222 29.6447C14.4346 29.3893 14.5602 29.0729 14.5806 28.7414C14.601 28.4099 14.5152 28.0804 14.3357 27.801C14.1562 27.5215 13.8923 27.3064 13.5824 27.1871C10.202 25.887 8.78253 24.0483 8.05664 22.5077C8.93995 22.6906 9.76239 22.9167 10.9375 22.9167C11.2894 22.9164 11.6309 22.7973 11.9067 22.5788C12.1825 22.3603 12.3765 22.0551 12.4572 21.7126C12.5379 21.3701 12.5007 21.0103 12.3516 20.6916C12.2024 20.3729 11.95 20.1139 11.6353 19.9565C11.6353 19.9565 8.33333 18.4375 8.33333 14.0625C8.33333 13.277 8.55088 12.7795 8.70971 12.1847C9.25469 12.917 9.70383 13.6235 10.5835 14.4348C13.2654 16.9083 17.6983 19.4304 24.3958 19.7896C24.6077 19.8009 24.8197 19.769 25.0188 19.6956C25.218 19.6223 25.4001 19.5092 25.5541 19.3632C25.7082 19.2172 25.8308 19.0413 25.9146 18.8464C25.9984 18.6514 26.0417 18.4414 26.0417 18.2292V16.6667C26.0417 12.6217 29.2884 9.375 33.3333 9.375Z" fill="white"/>
</svg>
